ffmpeg started on 2016-11-23 at 16:06:20
Report written to "Output/NVENCh264/results/ffmpeg/sintelfast3000k.log"
Command line:
Tools/ffmpeg/ffmpeg -benchmark -y -i Input/y4m/sintel.y4m -c:v h264_nvenc -preset fast -b:v 3000k -an Output/NVENCh264/encoded/sintelfast3000k.mkv
ffmpeg version N-82227-gdb23fde Copyright (c) 2000-2016 the FFmpeg developers
  built with gcc 5.4.0 (Ubuntu 5.4.0-6ubuntu1~16.04.2) 20160609
  configuration: --prefix=/home/jaroslav/ffmpeg_build --pkg-config-flags=--static --extra-cflags=-I/home/jaroslav/ffmpeg_build/include --extra-ldflags=-L/home/jaroslav/ffmpeg_build/lib --bindir=/home/jaroslav/bin --enable-gpl --enable-libass --enable-libfdk-aac --enable-libfreetype --enable-libmp3lame --enable-libopus --enable-libtheora --enable-libvorbis --enable-libvpx --enable-libx264 --enable-libx265 --enable-nvenc --enable-libmfx --enable-libxvid --enable-libgsm --enable-libopencore-amrnb --enable-version3 --enable-nonfree
  libavutil      55. 35.100 / 55. 35.100
  libavcodec     57. 66.101 / 57. 66.101
  libavformat    57. 57.100 / 57. 57.100
  libavdevice    57.  2.100 / 57.  2.100
  libavfilter     6. 66.100 /  6. 66.100
  libswscale      4.  3.100 /  4.  3.100
  libswresample   2.  4.100 /  2.  4.100
  libpostproc    54.  2.100 / 54.  2.100
Input #0, yuv4mpegpipe, from 'Input/y4m/sintel.y4m':
  Duration: 00:00:20.83, start: 0.000000, bitrate: 2057307 kb/s
    Stream #0:0: Video: rawvideo (I420 / 0x30323449), yuv420p(progressive), 4096x1744, SAR 1:1 DAR 256:109, 24 fps, 24 tbr, 24 tbn, 24 tbc
Output #0, matroska, to 'Output/NVENCh264/encoded/sintelfast3000k.mkv':
  Metadata:
    encoder         : Lavf57.57.100
    Stream #0:0: Video: h264 (h264_nvenc) (Main) (H264 / 0x34363248), yuv420p, 4096x1744 [SAR 1:1 DAR 256:109], q=-1--1, 3000 kb/s, 24 fps, 1k tbn, 24 tbc
    Metadata:
      encoder         : Lavc57.66.101 h264_nvenc
    Side data:
      cpb: bitrate max/min/avg: 0/0/3000000 buffer size: 6000000 vbv_delay: -1
Stream mapping:
  Stream #0:0 -> #0:0 (rawvideo (native) -> h264 (h264_nvenc))
Press [q] to stop, [?] for help
frame=   19 fps=0.0 q=0.0 size=       0kB time=00:00:00.00 bitrate=N/A speed=   0x    frame=   40 fps= 39 q=44.0 size=       1kB time=00:00:00.37 bitrate=  15.6kbits/s speed=0.369x    frame=   61 fps= 40 q=49.0 size=       1kB time=00:00:01.25 bitrate=   4.7kbits/s speed=0.82x    frame=   82 fps= 40 q=49.0 size=       1kB time=00:00:02.12 bitrate=   2.8kbits/s speed=1.05x    frame=  103 fps= 41 q=49.0 size=       1kB time=00:00:03.00 bitrate=   2.0kbits/s speed=1.18x    frame=  124 fps= 41 q=49.0 size=       1kB time=00:00:03.87 bitrate=   1.5kbits/s speed=1.27x    frame=  145 fps= 41 q=49.0 size=       1kB time=00:00:04.75 bitrate=   1.2kbits/s speed=1.33x    frame=  166 fps= 41 q=49.0 size=    2782kB time=00:00:05.62 bitrate=4050.5kbits/s speed=1.38x    frame=  174 fps= 23 q=49.0 size=    2782kB time=00:00:05.95 bitrate=3824.1kbits/s speed=0.788x    frame=  175 fps= 16 q=49.0 size=    2782kB time=00:00:06.00 bitrate=3797.4kbits/s speed=0.539x    frame=  176 fps= 14 q=49.0 size=    2782kB time=00:00:06.04 bitrate=3771.0kbits/s speed=0.484x    frame=  197 fps= 15 q=49.0 size=    2782kB time=00:00:06.91 bitrate=3294.0kbits/s speed=0.532x    frame=  218 fps= 16 q=49.0 size=    2782kB time=00:00:07.79 bitrate=2924.2kbits/s speed=0.577x    frame=  239 fps= 17 q=49.0 size=    2782kB time=00:00:08.66 bitrate=2629.0kbits/s speed=0.619x    frame=  260 fps= 18 q=49.0 size=    2782kB time=00:00:09.54 bitrate=2387.9kbits/s speed=0.657x    frame=  281 fps= 19 q=49.0 size=    5136kB time=00:00:10.41 bitrate=4038.2kbits/s speed=0.693x    frame=  302 fps= 19 q=49.0 size=    5459kB time=00:00:11.29 bitrate=3959.9kbits/s speed=0.726x    frame=  323 fps= 20 q=49.0 size=    5459kB time=00:00:12.16 bitrate=3675.2kbits/s speed=0.758x    frame=  344 fps= 21 q=47.0 size=    5459kB time=00:00:13.04 bitrate=3428.6kbits/s speed=0.787x    frame=  365 fps= 21 q=46.0 size=    5459kB time=00:00:13.91 bitrate=3213.1kbits/s speed=0.815x    frame=  386 fps= 22 q=44.0 size=    5459kB time=00:00:14.79 bitrate=3023.0kbits/s speed=0.841x    frame=  407 fps= 22 q=49.0 size=    5459kB time=00:00:15.66 bitrate=2854.2kbits/s speed=0.866x    frame=  428 fps= 23 q=49.0 size=    6524kB time=00:00:16.54 bitrate=3230.6kbits/s speed=0.889x    frame=  449 fps= 23 q=46.0 size=    6846kB time=00:00:17.41 bitrate=3219.7kbits/s speed=0.911x    frame=  470 fps= 24 q=49.0 size=    6846kB time=00:00:18.29 bitrate=3065.7kbits/s speed=0.932x    frame=  491 fps= 24 q=48.0 size=    6846kB time=00:00:19.16 bitrate=2925.7kbits/s speed=0.952x    frame=  500 fps= 25 q=46.0 Lsize=    7659kB time=00:00:20.79 bitrate=3017.4kbits/s speed=1.02x    
video:7654kB audio:0kB subtitle:0kB other streams:0kB global headers:0kB muxing overhead: 0.059403%
bench: utime=0.788s
bench: maxrss=836988kB
